inDegrees=no
num_controls=7
num_derivatives=13
num_iterations=134
num_multipliers=7
num_parameters=0
num_slacks=7
num_states=26
objective=0.475612
objective_accelerations=0.046593
objective_balance=0.003519
objective_effort=0.042135
objective_height=0.377837
objective_ligament=0.005529
solver_duration=1898.053767
status=Solve_Succeeded
success=true
DataType=double
version=3
OpenSimVersion=4.5
endheader
time	/jointset/ground_pelvis/pelvis_tilt/value	/jointset/ground_pelvis/pelvis_tx/value	/jointset/ground_pelvis/pelvis_ty/value	/jointset/hip_l/hip_flexion_l/value	/jointset/hip_l/hip_adduction_l/value	/jointset/hip_l/hip_rotation_l/value	/jointset/back/lumbar_extension/value	/jointset/patellofemoral_l/patellar_flexion_l/value	/jointset/knee_l/knee_flexion_l/value	/jointset/knee_l/knee_adduction_l/value	/jointset/knee_l/knee_rotation_l/value	/jointset/ankle_l/ankle_angle_l/value	/jointset/subtalar_l/subtalar_angle_l/value	/jointset/ground_pelvis/pelvis_tilt/speed	/jointset/ground_pelvis/pelvis_tx/speed	/jointset/ground_pelvis/pelvis_ty/speed	/jointset/hip_l/hip_flexion_l/speed	/jointset/hip_l/hip_adduction_l/speed	/jointset/hip_l/hip_rotation_l/speed	/jointset/back/lumbar_extension/speed	/jointset/patellofemoral_l/patellar_flexion_l/speed	/jointset/knee_l/knee_flexion_l/speed	/jointset/knee_l/knee_adduction_l/speed	/jointset/knee_l/knee_rotation_l/speed	/jointset/ankle_l/ankle_angle_l/speed	/jointset/subtalar_l/subtalar_angle_l/speed	/forceset/tau_hip_flexion_l	/forceset/tau_hip_adduction_l	/forceset/tau_hip_rotation_l	/forceset/tau_knee_flexion_l	/forceset/tau_ankle_angle_l	/forceset/tau_subtalar_angle_l	/forceset/tau_lumbar_extension	lambda_cid13_p0	lambda_cid13_p1	lambda_cid13_p2	lambda_cid13_p3	lambda_cid13_p4	lambda_cid13_p5	lambda_cid14_p0	/jointset/ground_pelvis/pelvis_tilt/accel	/jointset/ground_pelvis/pelvis_tx/accel	/jointset/ground_pelvis/pelvis_ty/accel	/jointset/hip_l/hip_flexion_l/accel	/jointset/hip_l/hip_adduction_l/accel	/jointset/hip_l/hip_rotation_l/accel	/jointset/back/lumbar_extension/accel	/jointset/patellofemoral_l/patellar_flexion_l/accel	/jointset/knee_l/knee_flexion_l/accel	/jointset/knee_l/knee_adduction_l/accel	/jointset/knee_l/knee_rotation_l/accel	/jointset/ankle_l/ankle_angle_l/accel	/jointset/subtalar_l/subtalar_angle_l/accel	gamma_cid13_p0	gamma_cid13_p1	gamma_cid13_p2	gamma_cid13_p3	gamma_cid13_p4	gamma_cid13_p5	gamma_cid14_p0
1	-0.1127577952856553	-0.05676286861767699	0.6642520766600095	1.377943244365379	-0.3247891083926943	0.0772693181241814	-0.9599310681495976	1.459927523072692	1.459927523073074	-0.04378230927223498	-0.1745325224252848	0.2979761208604491	0.0777285095398183	0.102286242433922	0.02433356638779736	0.07190509496725062	-0.3014816387821176	-0.008436780593047193	-0.06424360201868254	2.563339778684334e-05	-0.1616658729773482	-0.1616658729773362	-0.003942073609920797	-9.645676581686947e-06	0.02867504128799316	0.002868926792663359	-0.3787122171518265	0.0180916341794878	0.001946247649290855	-0.3936506231750265	0.03367797789789145	0.02104817917969919	0.4303176537376193	-41.10649256411421	-0.009249602774782366	-2.662526288742068	14.6455307445009	-806.6382965603917	-66.88690879049443	-0.04077094577867662	0.8080014884683427	-0.03375562740954419	1.664351102909151	-5.220253457272907	-0.1398818024230669	-1.639184995318009	-0.01764698371420262	-5.234798105119774	-5.234798105119083	-0.4775561522784648	-0.01883232177261411	-1.196129236421491	-0.7151886197643591	-6.673347835746309e-09	1.79089987183197e-08	5.014001510882954e-08	4.120466035369347e-10	-2.046491725396635e-08	1.307027309340308e-07	-1.613300751164409e-08
1.01	-0.1116949448472757	-0.05652117257569329	0.6650540787198203	1.374668454491353	-0.3248797285952668	0.07654431528373659	-0.9599310799587003	1.458049590354956	1.45804959035519	-0.04384390572333857	-0.1745325236354763	0.2982031153463818	0.07772248235438435	0.1102780379989453	0.02401124292248203	0.08847835011508647	-0.3534327750168583	-0.009677083842424826	-0.0807481164230517	-1.128969295848944e-05	-0.213902176428777	-0.2139021764287966	-0.00837112833696471	7.600147930115796e-06	0.01670617694407836	-0.004068816582030915	-0.3776702883900179	0.01824742375437353	0.001877820635176712	-0.3934476963739506	0.03368206951178777	0.02118820073433772	0.4297129877309881	-41.05337411696741	-0.09273436513340859	-2.633941631676064	14.49397296507641	-806.0393882059814	-66.95963800830768	-0.04080345843095703	0.7938951692164122	-0.03062919354947004	1.651262320208098	-5.176012511596473	-0.1145833550078383	-1.654774171900456	0.005790856475478043	-5.215267895417289	-5.21526789542247	-0.4246791992916198	0.01175183858297366	-1.199917321738152	-0.6822453899601811	-1.333429045612144e-08	8.919110706616862e-09	7.59900601743613e-08	6.812900216983551e-09	-2.677891969643165e-08	1.50102829496334e-07	-2.218179936793159e-08
1.02	-0.1105523511375065	-0.05628253146585413	0.6660213032510068	1.370875459493977	-0.3249824475840956	0.07565452939746824	-0.9599309598330266	1.455649850316654	1.455649850316738	-0.04394961253498574	-0.1745324026266204	0.298309890731203	0.07764724209647576	0.1182348967118522	0.02372257995888942	0.1049495892424138	-0.4051226634524717	-0.01085653784431195	-0.09720021118358443	5.202034550261617e-05	-0.2660273370907205	-0.2660273370907751	-0.01276414571897943	1.479813323786867e-05	0.004631221065696313	-0.01097368770225398	-0.3766283596282051	0.01840321332926152	0.001809393621073775	-0.393244769572874	0.03368616112568382	0.02132822228897902	0.4291083217243607	-41.01111235835571	-0.1735696100087242	-2.606634470264374	14.39966207076767	-805.5805545302255	-67.00898601515038	-0.04083781469366923	0.8010141180450456	-0.02702352706499769	1.643947898807451	-5.168003897447451	-0.1277119529249662	-1.628701066550724	0.002399642127082015	-5.21256954722273	-5.212569547222696	-0.4703486832726274	-0.02084188961342573	-1.217347543314939	-0.7086141688701185	-2.072906651284023e-08	-1.211940657715828e-09	1.010748185403255e-07	1.408114338956166e-08	-3.40539174867545e-08	1.69092945215849e-07	-2.828928792369982e-08
1.03	-0.109330808993234	-0.05604638555848235	0.6671527320075783	1.366567025126079	-0.3250966360410805	0.0746005204322118	-0.9599277642721045	1.452729349737923	1.452729349737878	-0.04409909728509251	-0.1745322118272925	0.2982956238353932	0.07750327281125721	0.126023949158183	0.02353477806735445	0.1213196880809563	-0.4565073884051368	-0.01197145686007333	-0.1135921065906464	0.0007973725873078308	-0.3180617936097846	-0.3180617936098462	-0.01713057442967745	2.12867116961479e-05	-0.007478860654305386	-0.01780281499338484	-0.3771968213721276	0.01873293442703387	0.001699016003223487	-0.3924854081828056	0.03331830235026317	0.02157160127243279	0.4303636914370346	-41.12597568371132	-0.2878408157081802	-2.555653102838659	13.96591088804212	-806.1220540944034	-67.03696135571754	-0.04087954934304676	0.7604105937173734	-0.01042772166154759	1.631061465844792	-5.11518746970439	-0.1019378690536597	-1.643040093291072	0.1421451272351248	-5.197229030917556	-5.197229030918628	-0.4194758142235593	0.01111301733673653	-1.206980127144524	-0.6674716849963989	-2.813133066584824e-08	-1.135463654605495e-08	1.26151767858335e-07	2.135823747600847e-08	-4.133872135205549e-08	1.880788774369683e-07	-3.439737542538112e-08
1.04	-0.1080328643673402	-0.05581127151031867	0.6684473658704286	1.361746447373549	-0.3252216848868535	0.0733828712497834	-0.9599108067663493	1.449288835528668	1.449288835528493	-0.04429218349215626	-0.1745320123850279	0.2981604277942231	0.07729153031797498	0.1335153930361248	0.02351620811726738	0.1375906104981832	-0.5075513403789363	-0.01302861560191204	-0.1299282546179939	0.002804409310227571	-0.3700300631956213	-0.3700300631956904	-0.02148443711058262	1.652672060566656e-05	-0.01955460800637674	-0.02452832931498895	-0.3777652831160517	0.0190626555248059	0.001588638385380723	-0.391726046792737	0.0329504435748427	0.0218149802558861	0.4316190611497072	-41.25199562796568	-0.3993618916488059	-2.506020216579774	13.58851840205435	-806.8082660689363	-67.04205497165063	-0.04092294054593201	0.7414924043672433	0.006822861224586239	1.624112614544342	-5.099849301674353	-0.1161598981404344	-1.617551590607823	0.254736538349955	-5.199332160577257	-5.199332160577343	-0.4678354773140619	-0.02309160352318222	-1.21048066972887	-0.6878915749647714	-3.244233897571467e-08	-2.236707413220817e-08	1.505303582537301e-07	2.239055146766271e-08	-4.648987198667749e-08	2.001346707366592e-07	-3.989422497137708e-08
1.05	-0.1066613779418	-0.05557547461206683	0.6699041376015441	1.35641719549505	-0.3253569787365823	0.07200223024102932	-0.9598677321401012	1.445329128111895	1.445329128111647	-0.04452873594744779	-0.1745319002948563	0.2979046437404512	0.0770131157385953	0.140741860069953	0.02367358233248194	0.1537395120719259	-0.5582342337242497	-0.01401587122160332	-0.1461840027505172	0.005997212638022698	-0.4218848736717735	-0.4218848736718188	-0.02581966465180176	6.987353363215451e-06	-0.03159667202784772	-0.0311296456865081	-0.3777920645200005	0.01934862221459437	0.001451995999498994	-0.3908057447013534	0.03294675815254689	0.02212215532987189	0.4324005892337363	-41.21837725203504	-0.5757469643214654	-2.435530913761838	13.05439217567211	-806.9267133378387	-67.11103989405585	-0.04097940457059625	0.7072155118974515	0.02476097557836036	1.606635014613811	-5.042794037435645	-0.0878824164104377	-1.627231821346613	0.3795567347506637	-5.174564388327781	-5.174564388324153	-0.4154351766967689	0.01031931104353495	-1.200243321660354	-0.6425255993114223	-3.665674554048295e-08	-3.340669114641808e-08	1.748871249327936e-07	2.322771608135472e-08	-5.157434595784078e-08	2.119738971950555e-07	-4.537197333125788e-08
1.06	-0.1052188285141202	-0.05533719071688115	0.6715216695655619	1.350583057745802	-0.3255017199470133	0.07045950267159526	-0.9597871285796226	1.440851670810922	1.440851670810601	-0.04480845443498512	-0.1745318427154824	0.2975286042358039	0.07666943320928722	0.1477279934640543	0.02401360750403504	0.1697426570786509	-0.6085285145285962	-0.01491808774237279	-0.1623455667539219	0.01031019615607233	-0.4735800400356697	-0.4735800400356903	-0.03011764355985839	5.62456085317287e-06	-0.04360569818148445	-0.03758191930066476	-0.3778188459239507	0.01963458890438161	0.001315353613623028	-0.3898854426099698	0.032943072730251	0.02242933040385586	0.4331821173177644	-41.19615104346583	-0.7493165071123952	-2.366428129538054	12.57548658045196	-807.1929810485551	-67.15867700124264	-0.04103786232025565	0.6934256764218322	0.04335305249229458	1.594961301140795	-5.022126793480974	-0.09915207835607633	-1.598714764784084	0.4787725764008498	-5.167403338126091	-5.167403338125991	-0.4603857506815614	-0.02145628857670387	-1.20387309616202	-0.6580830234922748	-4.112137888996648e-08	-4.647235589546354e-08	1.9679209557868e-07	2.385426231263543e-08	-5.666717484418203e-08	2.202820383266464e-07	-5.062910156251273e-08
1.07	-0.1037075018307016	-0.05509457459511139	0.6732984263180947	1.344247984414215	-0.325655038850052	0.0687557229936747	-0.9596578618608083	1.435858224154064	1.435858224153995	-0.04513098138202034	-0.174531775363554	0.2970326349304814	0.07626200920764654	0.1545077617820703	0.02454195634142965	0.1855766435735545	-0.6584143049093317	-0.015729194605437	-0.178389798768413	0.01572486093388436	-0.5250668468189419	-0.5250668468188878	-0.03437853909620689	7.57694040840185e-06	-0.05558288685392974	-0.04387378469735612	-0.3776427041825728	0.01996913462983673	0.001142569580874453	-0.3885306377026403	0.03287338634187191	0.02281245029471432	0.4337661508513746	-41.15959333676217	-0.9708597543812347	-2.275420060959175	12.04443919214366	-807.0038020045782	-67.22827509098471	-0.04110916074147127	0.6658108704287705	0.0624316257139688	1.572797421399021	-4.96103404589208	-0.06963671345944873	-1.604238330911007	0.6000704275220525	-5.132941421808655	-5.132941421797521	-0.4075945493309137	0.01102933845085081	-1.193855419966195	-0.6103898222421726	-4.559932217480721e-08	-5.964578914104282e-08	2.185666515419505e-07	2.446960543846872e-08	-6.176044814090508e-08	2.284023557706412e-07	-5.58744946805428e-08
1.08	-0.1021292657719153	-0.0548457038196975	0.6752325589551232	1.337416207401718	-0.3258159781663568	0.06689210881338324	-0.9594689970944051	1.430351185014697	1.43035118501488	-0.04549584790326246	-0.1745316868203835	0.2964170510049984	0.07579253624714198	0.1611098685375778	0.02526453823286097	0.2012178339778133	-0.707869250710957	-0.01644217039561524	-0.1943124672280795	0.02222980567372307	-0.576298536537449	-0.5762985365373209	-0.03858555840133242	9.862809132225747e-06	-0.06752862221359163	-0.04999171107343175	-0.3774665624411926	0.0203036803552916	0.0009697855481309692	-0.3871758327953105	0.03280369995349229	0.02319557018557214	0.434350184384987	-41.13473203639072	-1.189438843406652	-2.185931149744649	11.56682659109543	-806.9667323240249	-67.27822608904252	-0.0411826993955285	0.6578933639201388	0.08219966329963709	1.556402083011847	-4.93595787765893	-0.0795258637788831	-1.574402053819177	0.696828568806185	-5.116379925173058	-5.116379925173069	-0.4496105044369703	-0.02138959074298661	-1.197582433605342	-0.6232952193691312	-4.973290107925313e-08	-7.182774980512589e-08	2.37437485413803e-07	2.548724546915348e-08	-6.643691457257785e-08	2.320067522097708e-07	-6.018399914505999e-08
